<mxfile host="app.diagrams.net" agent="Mozilla/5.0 (Macintosh; Intel Mac OS X 10_15_7) AppleWebKit/537.36 (KHTML, like Gecko) Chrome/126.0.0.0 Safari/537.36 OPR/112.0.0.0" version="24.7.6">
  <diagram name="Page-1" id="ix5Zt33PAQwgsV7Q0Ln3">
    <mxGraphModel dx="3624" dy="2031" grid="0" gridSize="10" guides="1" tooltips="1" connect="1" arrows="1" fold="1" page="0" pageScale="1" pageWidth="850" pageHeight="1100" math="0" shadow="0">
      <root>
        <mxCell id="0" />
        <mxCell id="1" parent="0" />
        <mxCell id="bPqM1AxZNPVaJdWIuvIf-173" value="" style="rounded=0;whiteSpace=wrap;html=1;dashed=1;" vertex="1" parent="1">
          <mxGeometry x="-1726" y="-583" width="127" height="79" as="geometry" />
        </mxCell>
        <mxCell id="bPqM1AxZNPVaJdWIuvIf-102" style="edgeStyle=none;curved=1;rounded=0;orthogonalLoop=1;jettySize=auto;html=1;fontSize=12;startSize=8;endSize=8;" edge="1" parent="1" source="bPqM1AxZNPVaJdWIuvIf-97" target="bPqM1AxZNPVaJdWIuvIf-99">
          <mxGeometry relative="1" as="geometry" />
        </mxCell>
        <mxCell id="bPqM1AxZNPVaJdWIuvIf-97" value="" style="rounded=1;whiteSpace=wrap;html=1;arcSize=18;fillColor=#f5f5f5;fontColor=#333333;strokeColor=#666666;" vertex="1" parent="1">
          <mxGeometry x="-1470" y="-1060" width="120" height="80" as="geometry" />
        </mxCell>
        <mxCell id="bPqM1AxZNPVaJdWIuvIf-3" value="Cấp mới" style="shape=umlLifeline;perimeter=lifelinePerimeter;whiteSpace=wrap;html=1;container=1;dropTarget=0;collapsible=0;recursiveResize=0;outlineConnect=0;portConstraint=eastwest;newEdgeStyle={&quot;edgeStyle&quot;:&quot;elbowEdgeStyle&quot;,&quot;elbow&quot;:&quot;vertical&quot;,&quot;curved&quot;:0,&quot;rounded&quot;:0};fillColor=#f5f5f5;fontColor=#333333;strokeColor=#666666;fontFamily=Courier New;" vertex="1" parent="1">
          <mxGeometry x="-1330" y="111" width="100" height="300" as="geometry" />
        </mxCell>
        <mxCell id="bPqM1AxZNPVaJdWIuvIf-35" value="" style="html=1;points=[[0,0,0,0,5],[0,1,0,0,-5],[1,0,0,0,5],[1,1,0,0,-5]];perimeter=orthogonalPerimeter;outlineConnect=0;targetShapes=umlLifeline;portConstraint=eastwest;newEdgeStyle={&quot;curved&quot;:0,&quot;rounded&quot;:0};fillColor=#f5f5f5;fontColor=#333333;strokeColor=#666666;fontFamily=Courier New;" vertex="1" parent="bPqM1AxZNPVaJdWIuvIf-3">
          <mxGeometry x="45" y="53" width="10" height="57" as="geometry" />
        </mxCell>
        <mxCell id="bPqM1AxZNPVaJdWIuvIf-4" value="Chuyển dữ liệu" style="shape=umlLifeline;perimeter=lifelinePerimeter;whiteSpace=wrap;html=1;container=1;dropTarget=0;collapsible=0;recursiveResize=0;outlineConnect=0;portConstraint=eastwest;newEdgeStyle={&quot;edgeStyle&quot;:&quot;elbowEdgeStyle&quot;,&quot;elbow&quot;:&quot;vertical&quot;,&quot;curved&quot;:0,&quot;rounded&quot;:0};fillColor=#dae8fc;strokeColor=#6c8ebf;fontFamily=Courier New;" vertex="1" parent="1">
          <mxGeometry x="-1100" y="111" width="400" height="1189" as="geometry" />
        </mxCell>
        <mxCell id="bPqM1AxZNPVaJdWIuvIf-37" value="" style="html=1;points=[[0,0,0,0,5],[0,1,0,0,-5],[1,0,0,0,5],[1,1,0,0,-5]];perimeter=orthogonalPerimeter;outlineConnect=0;targetShapes=umlLifeline;portConstraint=eastwest;newEdgeStyle={&quot;curved&quot;:0,&quot;rounded&quot;:0};fillColor=#fff2cc;strokeColor=#d6b656;fontFamily=Courier New;" vertex="1" parent="bPqM1AxZNPVaJdWIuvIf-4">
          <mxGeometry x="195" y="149" width="10" height="57" as="geometry" />
        </mxCell>
        <mxCell id="bPqM1AxZNPVaJdWIuvIf-38" value="" style="endArrow=classic;html=1;rounded=0;fontSize=12;startSize=8;endSize=8;curved=1;exitX=1;exitY=0;exitDx=0;exitDy=5;exitPerimeter=0;fontFamily=Courier New;" edge="1" parent="bPqM1AxZNPVaJdWIuvIf-4" source="bPqM1AxZNPVaJdWIuvIf-37" target="bPqM1AxZNPVaJdWIuvIf-37">
          <mxGeometry width="50" height="50" relative="1" as="geometry">
            <mxPoint x="283" y="233" as="sourcePoint" />
            <mxPoint x="333" y="183" as="targetPoint" />
            <Array as="points">
              <mxPoint x="243" y="203" />
            </Array>
          </mxGeometry>
        </mxCell>
        <mxCell id="bPqM1AxZNPVaJdWIuvIf-20" value="&lt;font style=&quot;font-size: 12px;&quot;&gt;rep_fb2.kvfb2 rep_fb2.kvfb3&lt;/font&gt;&lt;div&gt;&lt;font style=&quot;font-size: 12px;&quot;&gt;rep10.kvfb4&lt;/font&gt;&lt;/div&gt;&lt;div style=&quot;text-align: center;&quot;&gt;&lt;font style=&quot;&quot;&gt;&lt;span style=&quot;font-size: 12px;&quot;&gt;↓&lt;/span&gt;&lt;br&gt;&lt;/font&gt;&lt;/div&gt;&lt;div style=&quot;text-align: center;&quot;&gt;&lt;span style=&quot;font-size: 12px;&quot;&gt;rep_fb9.kvfb2&lt;br&gt;rep_fb9.kvfb3&lt;br&gt;rep_fb9.kvfb4&lt;/span&gt;&lt;/div&gt;" style="text;html=1;align=left;verticalAlign=middle;whiteSpace=wrap;rounded=0;fontSize=16;fontFamily=Courier New;" vertex="1" parent="bPqM1AxZNPVaJdWIuvIf-4">
          <mxGeometry x="251.25" y="139" width="76.5" height="92" as="geometry" />
        </mxCell>
        <mxCell id="bPqM1AxZNPVaJdWIuvIf-43" value="" style="html=1;points=[[0,0,0,0,5],[0,1,0,0,-5],[1,0,0,0,5],[1,1,0,0,-5]];perimeter=orthogonalPerimeter;outlineConnect=0;targetShapes=umlLifeline;portConstraint=eastwest;newEdgeStyle={&quot;curved&quot;:0,&quot;rounded&quot;:0};fillColor=#dae8fc;strokeColor=#6c8ebf;fontFamily=Courier New;" vertex="1" parent="bPqM1AxZNPVaJdWIuvIf-4">
          <mxGeometry x="195" y="411.5" width="10" height="57" as="geometry" />
        </mxCell>
        <mxCell id="bPqM1AxZNPVaJdWIuvIf-44" value="" style="endArrow=classic;html=1;rounded=0;fontSize=12;startSize=8;endSize=8;curved=1;exitX=1;exitY=0;exitDx=0;exitDy=5;exitPerimeter=0;fontFamily=Courier New;" edge="1" parent="bPqM1AxZNPVaJdWIuvIf-4" source="bPqM1AxZNPVaJdWIuvIf-43" target="bPqM1AxZNPVaJdWIuvIf-43">
          <mxGeometry width="50" height="50" relative="1" as="geometry">
            <mxPoint x="283" y="495.5" as="sourcePoint" />
            <mxPoint x="333" y="445.5" as="targetPoint" />
            <Array as="points">
              <mxPoint x="243" y="465.5" />
            </Array>
          </mxGeometry>
        </mxCell>
        <mxCell id="bPqM1AxZNPVaJdWIuvIf-47" value="&lt;font style=&quot;font-size: 12px;&quot;&gt;rep_fb.kvfb rep_fb.kvfb5&lt;/font&gt;&lt;div&gt;&lt;font style=&quot;font-size: 12px;&quot;&gt;rep_fb.kvfb6&lt;/font&gt;&lt;/div&gt;&lt;div style=&quot;text-align: center;&quot;&gt;&lt;font style=&quot;&quot;&gt;&lt;span style=&quot;font-size: 12px;&quot;&gt;↓&lt;/span&gt;&lt;br&gt;&lt;/font&gt;&lt;/div&gt;&lt;div style=&quot;text-align: center;&quot;&gt;&lt;span style=&quot;font-size: 12px;&quot;&gt;rep_fb2.kvfb&lt;/span&gt;&lt;/div&gt;&lt;div style=&quot;text-align: center;&quot;&gt;&lt;span style=&quot;font-size: 12px;&quot;&gt;rep_fb2.kvfb5&lt;/span&gt;&lt;/div&gt;&lt;div style=&quot;text-align: center;&quot;&gt;&lt;span style=&quot;font-size: 12px;&quot;&gt;rep_fb2.kvfb6&lt;br&gt;&lt;br&gt;&lt;/span&gt;&lt;/div&gt;" style="text;html=1;align=left;verticalAlign=middle;whiteSpace=wrap;rounded=0;fontSize=16;fontFamily=Courier New;" vertex="1" parent="bPqM1AxZNPVaJdWIuvIf-4">
          <mxGeometry x="252" y="394" width="76.5" height="92" as="geometry" />
        </mxCell>
        <mxCell id="bPqM1AxZNPVaJdWIuvIf-54" value="" style="html=1;points=[[0,0,0,0,5],[0,1,0,0,-5],[1,0,0,0,5],[1,1,0,0,-5]];perimeter=orthogonalPerimeter;outlineConnect=0;targetShapes=umlLifeline;portConstraint=eastwest;newEdgeStyle={&quot;curved&quot;:0,&quot;rounded&quot;:0};fillColor=#d5e8d4;strokeColor=#82b366;fontFamily=Courier New;" vertex="1" parent="bPqM1AxZNPVaJdWIuvIf-4">
          <mxGeometry x="195" y="690.5" width="10" height="57" as="geometry" />
        </mxCell>
        <mxCell id="bPqM1AxZNPVaJdWIuvIf-55" value="" style="endArrow=classic;html=1;rounded=0;fontSize=12;startSize=8;endSize=8;curved=1;exitX=1;exitY=0;exitDx=0;exitDy=5;exitPerimeter=0;fontFamily=Courier New;" edge="1" parent="bPqM1AxZNPVaJdWIuvIf-4" source="bPqM1AxZNPVaJdWIuvIf-54" target="bPqM1AxZNPVaJdWIuvIf-54">
          <mxGeometry width="50" height="50" relative="1" as="geometry">
            <mxPoint x="283" y="774.5" as="sourcePoint" />
            <mxPoint x="333" y="724.5" as="targetPoint" />
            <Array as="points">
              <mxPoint x="243" y="744.5" />
            </Array>
          </mxGeometry>
        </mxCell>
        <mxCell id="bPqM1AxZNPVaJdWIuvIf-56" value="&lt;font style=&quot;font-size: 12px;&quot;&gt;rep_10.kvfb_master rep_10.kvfbjob_bulkmessaging&lt;/font&gt;&lt;div&gt;&lt;font style=&quot;font-size: 12px;&quot;&gt;&lt;span style=&quot;background-color: initial;&quot;&gt;&amp;nbsp; &amp;nbsp; &amp;nbsp;↓&lt;/span&gt;&lt;br&gt;&lt;/font&gt;&lt;span style=&quot;font-size: 12px;&quot;&gt;rep_fb.kvfb_master rep_fb.kvfbjob_bulkmessaging&lt;/span&gt;&lt;/div&gt;" style="text;html=1;align=left;verticalAlign=middle;whiteSpace=wrap;rounded=0;fontSize=16;fontFamily=Courier New;" vertex="1" parent="bPqM1AxZNPVaJdWIuvIf-4">
          <mxGeometry x="252" y="640" width="231" height="125" as="geometry" />
        </mxCell>
        <mxCell id="bPqM1AxZNPVaJdWIuvIf-12" value="Cài đặt Mongo 5.0.26" style="shape=umlLifeline;perimeter=lifelinePerimeter;whiteSpace=wrap;html=1;container=1;dropTarget=0;collapsible=0;recursiveResize=0;outlineConnect=0;portConstraint=eastwest;newEdgeStyle={&quot;edgeStyle&quot;:&quot;elbowEdgeStyle&quot;,&quot;elbow&quot;:&quot;vertical&quot;,&quot;curved&quot;:0,&quot;rounded&quot;:0};fillColor=#f8cecc;strokeColor=#b85450;fontFamily=Courier New;" vertex="1" parent="1">
          <mxGeometry x="-240" y="111" width="214" height="1189" as="geometry" />
        </mxCell>
        <mxCell id="bPqM1AxZNPVaJdWIuvIf-36" value="" style="html=1;points=[[0,0,0,0,5],[0,1,0,0,-5],[1,0,0,0,5],[1,1,0,0,-5]];perimeter=orthogonalPerimeter;outlineConnect=0;targetShapes=umlLifeline;portConstraint=eastwest;newEdgeStyle={&quot;curved&quot;:0,&quot;rounded&quot;:0};fillColor=#f8cecc;strokeColor=#b85450;fontFamily=Courier New;" vertex="1" parent="bPqM1AxZNPVaJdWIuvIf-12">
          <mxGeometry x="104" y="55" width="10" height="57" as="geometry" />
        </mxCell>
        <mxCell id="bPqM1AxZNPVaJdWIuvIf-41" value="" style="html=1;points=[[0,0,0,0,5],[0,1,0,0,-5],[1,0,0,0,5],[1,1,0,0,-5]];perimeter=orthogonalPerimeter;outlineConnect=0;targetShapes=umlLifeline;portConstraint=eastwest;newEdgeStyle={&quot;curved&quot;:0,&quot;rounded&quot;:0};fillColor=#fff2cc;strokeColor=#d6b656;fontFamily=Courier New;" vertex="1" parent="bPqM1AxZNPVaJdWIuvIf-12">
          <mxGeometry x="102" y="331" width="10" height="57" as="geometry" />
        </mxCell>
        <mxCell id="bPqM1AxZNPVaJdWIuvIf-42" value="" style="endArrow=classic;html=1;rounded=0;fontSize=12;startSize=8;endSize=8;curved=1;exitX=1;exitY=0;exitDx=0;exitDy=5;exitPerimeter=0;fontFamily=Courier New;" edge="1" parent="bPqM1AxZNPVaJdWIuvIf-12" source="bPqM1AxZNPVaJdWIuvIf-41" target="bPqM1AxZNPVaJdWIuvIf-41">
          <mxGeometry width="50" height="50" relative="1" as="geometry">
            <mxPoint x="226" y="426.5" as="sourcePoint" />
            <mxPoint x="276" y="376.5" as="targetPoint" />
            <Array as="points">
              <mxPoint x="148" y="387" />
            </Array>
          </mxGeometry>
        </mxCell>
        <mxCell id="bPqM1AxZNPVaJdWIuvIf-27" value="&lt;font style=&quot;font-size: 12px;&quot;&gt;rep_fb2&lt;span style=&quot;color: rgba(0, 0, 0, 0); font-size: 0px; text-align: start; text-wrap: nowrap;&quot;&gt;%3CmxGraphModel%3E%3Croot%3E%3CmxCell%20id%3D%220%22%2F%3E%3CmxCell%20id%3D%221%22%20parent%3D%220%22%2F%3E%3CmxCell%20id%3D%222%22%20value%3D%22G%E1%BB%A1%20c%C3%A0i%20%C4%91%E1%BA%B7t%20Mongo%204.0.28%22%20style%3D%22shape%3DumlLifeline%3Bperimeter%3DlifelinePerimeter%3BwhiteSpace%3Dwrap%3Bhtml%3D1%3Bcontainer%3D1%3BdropTarget%3D0%3Bcollapsible%3D0%3BrecursiveResize%3D0%3BoutlineConnect%3D0%3BportConstraint%3Deastwest%3BnewEdgeStyle%3D%7B%26quot%3BedgeStyle%26quot%3B%3A%26quot%3BelbowEdgeStyle%26quot%3B%2C%26quot%3Belbow%26quot%3B%3A%26quot%3Bvertical%26quot%3B%2C%26quot%3Bcurved%26quot%3B%3A0%2C%26quot%3Brounded%26quot%3B%3A0%7D%3B%22%20vertex%3D%221%22%20parent%3D%221%22%3E%3CmxGeometry%20x%3D%22-703%22%20y%3D%22115%22%20width%3D%22100%22%20height%3D%22300%22%20as%3D%22geometry%22%2F%3E%3C%2FmxCell%3E%3C%2Froot%3E%3C%2FmxGraphModel%3E&lt;/span&gt;&amp;nbsp;&lt;/font&gt;" style="text;html=1;align=center;verticalAlign=middle;whiteSpace=wrap;rounded=0;fontSize=16;fontFamily=Courier New;" vertex="1" parent="bPqM1AxZNPVaJdWIuvIf-12">
          <mxGeometry x="152" y="344.5" width="54" height="30" as="geometry" />
        </mxCell>
        <mxCell id="bPqM1AxZNPVaJdWIuvIf-51" value="" style="html=1;points=[[0,0,0,0,5],[0,1,0,0,-5],[1,0,0,0,5],[1,1,0,0,-5]];perimeter=orthogonalPerimeter;outlineConnect=0;targetShapes=umlLifeline;portConstraint=eastwest;newEdgeStyle={&quot;curved&quot;:0,&quot;rounded&quot;:0};fillColor=#dae8fc;strokeColor=#6c8ebf;fontFamily=Courier New;" vertex="1" parent="bPqM1AxZNPVaJdWIuvIf-12">
          <mxGeometry x="102" y="610" width="10" height="57" as="geometry" />
        </mxCell>
        <mxCell id="bPqM1AxZNPVaJdWIuvIf-52" value="" style="endArrow=classic;html=1;rounded=0;fontSize=12;startSize=8;endSize=8;curved=1;exitX=1;exitY=0;exitDx=0;exitDy=5;exitPerimeter=0;fontFamily=Courier New;" edge="1" parent="bPqM1AxZNPVaJdWIuvIf-12" source="bPqM1AxZNPVaJdWIuvIf-51" target="bPqM1AxZNPVaJdWIuvIf-51">
          <mxGeometry width="50" height="50" relative="1" as="geometry">
            <mxPoint x="226" y="705.5" as="sourcePoint" />
            <mxPoint x="276" y="655.5" as="targetPoint" />
            <Array as="points">
              <mxPoint x="148" y="666" />
            </Array>
          </mxGeometry>
        </mxCell>
        <mxCell id="bPqM1AxZNPVaJdWIuvIf-53" value="&lt;font style=&quot;font-size: 12px;&quot;&gt;rep_fb&lt;span style=&quot;color: rgba(0, 0, 0, 0); font-size: 0px; text-align: start; text-wrap: nowrap;&quot;&gt;%3CmxGraphModel%3E%3Croot%3E%3CmxCell%20id%3D%220%22%2F%3E%3CmxCell%20id%3D%221%22%20parent%3D%220%22%2F%3E%3CmxCell%20id%3D%222%22%20value%3D%22G%E1%BB%A1%20c%C3%A0i%20%C4%91%E1%BA%B7t%20Mongo%204.0.28%22%20style%3D%22shape%3DumlLifeline%3Bperimeter%3DlifelinePerimeter%3BwhiteSpace%3Dwrap%3Bhtml%3D1%3Bcontainer%3D1%3BdropTarget%3D0%3Bcollapsible%3D0%3BrecursiveResize%3D0%3BoutlineConnect%3D0%3BportConstraint%3Deastwest%3BnewEdgeStyle%3D%7B%26quot%3BedgeStyle%26quot%3B%3A%26quot%3BelbowEdgeStyle%26quot%3B%2C%26quot%3Belbow%26quot%3B%3A%26quot%3Bvertical%26quot%3B%2C%26quot%3Bcurved%26quot%3B%3A0%2C%26quot%3Brounded%26quot%3B%3A0%7D%3B%22%20vertex%3D%221%22%20parent%3D%221%22%3E%3CmxGeometry%20x%3D%22-703%22%20y%3D%22115%22%20width%3D%22100%22%20height%3D%22300%22%20as%3D%22geometry%22%2F%3E%3C%2FmxCell%3E%3C%2Froot%3E%3C%2FmxGraphModel%&lt;/span&gt;&lt;/font&gt;" style="text;html=1;align=center;verticalAlign=middle;whiteSpace=wrap;rounded=0;fontSize=16;fontFamily=Courier New;" vertex="1" parent="bPqM1AxZNPVaJdWIuvIf-12">
          <mxGeometry x="148" y="623.5" width="54" height="30" as="geometry" />
        </mxCell>
        <mxCell id="bPqM1AxZNPVaJdWIuvIf-57" value="" style="html=1;points=[[0,0,0,0,5],[0,1,0,0,-5],[1,0,0,0,5],[1,1,0,0,-5]];perimeter=orthogonalPerimeter;outlineConnect=0;targetShapes=umlLifeline;portConstraint=eastwest;newEdgeStyle={&quot;curved&quot;:0,&quot;rounded&quot;:0};fillColor=#d5e8d4;strokeColor=#82b366;fontFamily=Courier New;" vertex="1" parent="bPqM1AxZNPVaJdWIuvIf-12">
          <mxGeometry x="102" y="816" width="10" height="57" as="geometry" />
        </mxCell>
        <mxCell id="bPqM1AxZNPVaJdWIuvIf-58" value="" style="endArrow=classic;html=1;rounded=0;fontSize=12;startSize=8;endSize=8;curved=1;exitX=1;exitY=0;exitDx=0;exitDy=5;exitPerimeter=0;fontFamily=Courier New;" edge="1" parent="bPqM1AxZNPVaJdWIuvIf-12" source="bPqM1AxZNPVaJdWIuvIf-57" target="bPqM1AxZNPVaJdWIuvIf-57">
          <mxGeometry width="50" height="50" relative="1" as="geometry">
            <mxPoint x="226" y="911.5" as="sourcePoint" />
            <mxPoint x="276" y="861.5" as="targetPoint" />
            <Array as="points">
              <mxPoint x="148" y="872" />
            </Array>
          </mxGeometry>
        </mxCell>
        <mxCell id="bPqM1AxZNPVaJdWIuvIf-59" value="&lt;font style=&quot;font-size: 12px;&quot;&gt;rep_fb&lt;span style=&quot;color: rgba(0, 0, 0, 0); font-size: 0px; text-align: start; text-wrap: nowrap;&quot;&gt;%3CmxGraphModel%3E%3Croot%3E%3CmxCell%20id%3D%220%22%2F%3E%3CmxCell%20id%3D%221%22%20parent%3D%220%22%2F%3E%3CmxCell%20id%3D%222%22%20value%3D%22G%E1%BB%A1%20c%C3%A0i%20%C4%91%E1%BA%B7t%20Mongo%204.0.28%22%20style%3D%22shape%3DumlLifeline%3Bperimeter%3DlifelinePerimeter%3BwhiteSpace%3Dwrap%3Bhtml%3D1%3Bcontainer%3D1%3BdropTarget%3D0%3Bcollapsible%3D0%3BrecursiveResize%3D0%3BoutlineConnect%3D0%3BportConstraint%3Deastwest%3BnewEdgeStyle%3D%7B%26quot%3BedgeStyle%26quot%3B%3A%26quot%3BelbowEdgeStyle%26quot%3B%2C%26quot%3Belbow%26quot%3B%3A%26quot%3Bvertical%26quot%3B%2C%26quot%3Bcurved%26quot%3B%3A0%2C%26quot%3Brounded%26quot%3B%3A0%7D%3B%22%20vertex%3D%221%22%20parent%3D%221%22%3E%3CmxGeometry%20x%3D%22-703%22%20y%3D%22115%22%20width%3D%22100%22%20height%3D%22300%22%20as%3D%22geometry%22%2F%3E%3C%2FmxCell%3E%3C%2Froot%3E%3C%2FmxGraphModel%&lt;/span&gt;&lt;/font&gt;" style="text;html=1;align=center;verticalAlign=middle;whiteSpace=wrap;rounded=0;fontSize=16;fontFamily=Courier New;" vertex="1" parent="bPqM1AxZNPVaJdWIuvIf-12">
          <mxGeometry x="148" y="829.5" width="54" height="30" as="geometry" />
        </mxCell>
        <mxCell id="bPqM1AxZNPVaJdWIuvIf-13" value="Gỡ cài đặt Mongo 4.0.28" style="shape=umlLifeline;perimeter=lifelinePerimeter;whiteSpace=wrap;html=1;container=1;dropTarget=0;collapsible=0;recursiveResize=0;outlineConnect=0;portConstraint=eastwest;newEdgeStyle={&quot;edgeStyle&quot;:&quot;elbowEdgeStyle&quot;,&quot;elbow&quot;:&quot;vertical&quot;,&quot;curved&quot;:0,&quot;rounded&quot;:0};fillColor=#fff2cc;strokeColor=#d6b656;fontFamily=Courier New;" vertex="1" parent="1">
          <mxGeometry x="-590" y="111" width="209" height="1191" as="geometry" />
        </mxCell>
        <mxCell id="bPqM1AxZNPVaJdWIuvIf-39" value="" style="html=1;points=[[0,0,0,0,5],[0,1,0,0,-5],[1,0,0,0,5],[1,1,0,0,-5]];perimeter=orthogonalPerimeter;outlineConnect=0;targetShapes=umlLifeline;portConstraint=eastwest;newEdgeStyle={&quot;curved&quot;:0,&quot;rounded&quot;:0};fillColor=#fff2cc;strokeColor=#d6b656;fontFamily=Courier New;" vertex="1" parent="bPqM1AxZNPVaJdWIuvIf-13">
          <mxGeometry x="98" y="272" width="10" height="57" as="geometry" />
        </mxCell>
        <mxCell id="bPqM1AxZNPVaJdWIuvIf-40" value="" style="endArrow=classic;html=1;rounded=0;fontSize=12;startSize=8;endSize=8;curved=1;exitX=1;exitY=0;exitDx=0;exitDy=5;exitPerimeter=0;fontFamily=Courier New;" edge="1" parent="bPqM1AxZNPVaJdWIuvIf-13" source="bPqM1AxZNPVaJdWIuvIf-39" target="bPqM1AxZNPVaJdWIuvIf-39">
          <mxGeometry width="50" height="50" relative="1" as="geometry">
            <mxPoint x="222" y="367.5" as="sourcePoint" />
            <mxPoint x="272" y="317.5" as="targetPoint" />
            <Array as="points">
              <mxPoint x="143" y="328" />
            </Array>
          </mxGeometry>
        </mxCell>
        <mxCell id="bPqM1AxZNPVaJdWIuvIf-24" value="&lt;font style=&quot;font-size: 12px;&quot;&gt;rep_fb2&lt;span style=&quot;color: rgba(0, 0, 0, 0); font-size: 0px; text-align: start; text-wrap: nowrap;&quot;&gt;%3CmxGraphModel%3E%3Croot%3E%3CmxCell%20id%3D%220%22%2F%3E%3CmxCell%20id%3D%221%22%20parent%3D%220%22%2F%3E%3CmxCell%20id%3D%222%22%20value%3D%22G%E1%BB%A1%20c%C3%A0i%20%C4%91%E1%BA%B7t%20Mongo%204.0.28%22%20style%3D%22shape%3DumlLifeline%3Bperimeter%3DlifelinePerimeter%3BwhiteSpace%3Dwrap%3Bhtml%3D1%3Bcontainer%3D1%3BdropTarget%3D0%3Bcollapsible%3D0%3BrecursiveResize%3D0%3BoutlineConnect%3D0%3BportConstraint%3Deastwest%3BnewEdgeStyle%3D%7B%26quot%3BedgeStyle%26quot%3B%3A%26quot%3BelbowEdgeStyle%26quot%3B%2C%26quot%3Belbow%26quot%3B%3A%26quot%3Bvertical%26quot%3B%2C%26quot%3Bcurved%26quot%3B%3A0%2C%26quot%3Brounded%26quot%3B%3A0%7D%3B%22%20vertex%3D%221%22%20parent%3D%221%22%3E%3CmxGeometry%20x%3D%22-703%22%20y%3D%22115%22%20width%3D%22100%22%20height%3D%22300%22%20as%3D%22geometry%22%2F%3E%3C%2FmxCell%3E%3C%2Froot%3E%3C%2FmxGraphModel%3E&lt;/span&gt;&amp;nbsp;&lt;/font&gt;" style="text;html=1;align=center;verticalAlign=middle;whiteSpace=wrap;rounded=0;fontSize=16;fontFamily=Courier New;" vertex="1" parent="bPqM1AxZNPVaJdWIuvIf-13">
          <mxGeometry x="143" y="285.5" width="67" height="30" as="geometry" />
        </mxCell>
        <mxCell id="bPqM1AxZNPVaJdWIuvIf-48" value="" style="html=1;points=[[0,0,0,0,5],[0,1,0,0,-5],[1,0,0,0,5],[1,1,0,0,-5]];perimeter=orthogonalPerimeter;outlineConnect=0;targetShapes=umlLifeline;portConstraint=eastwest;newEdgeStyle={&quot;curved&quot;:0,&quot;rounded&quot;:0};fillColor=#dae8fc;strokeColor=#6c8ebf;fontFamily=Courier New;" vertex="1" parent="bPqM1AxZNPVaJdWIuvIf-13">
          <mxGeometry x="97" y="554" width="10" height="57" as="geometry" />
        </mxCell>
        <mxCell id="bPqM1AxZNPVaJdWIuvIf-49" value="" style="endArrow=classic;html=1;rounded=0;fontSize=12;startSize=8;endSize=8;curved=1;exitX=1;exitY=0;exitDx=0;exitDy=5;exitPerimeter=0;fontFamily=Courier New;" edge="1" parent="bPqM1AxZNPVaJdWIuvIf-13" source="bPqM1AxZNPVaJdWIuvIf-48" target="bPqM1AxZNPVaJdWIuvIf-48">
          <mxGeometry width="50" height="50" relative="1" as="geometry">
            <mxPoint x="221" y="649.5" as="sourcePoint" />
            <mxPoint x="271" y="599.5" as="targetPoint" />
            <Array as="points">
              <mxPoint x="142" y="610" />
            </Array>
          </mxGeometry>
        </mxCell>
        <mxCell id="bPqM1AxZNPVaJdWIuvIf-50" value="&lt;font style=&quot;font-size: 12px;&quot;&gt;rep_fb&lt;span style=&quot;color: rgba(0, 0, 0, 0); font-size: 0px; text-align: start; text-wrap: nowrap;&quot;&gt;%3CmxGraphModel%3E%3Croot%3E%3CmxCell%20id%3D%220%22%2F%3E%3CmxCell%20id%3D%221%22%20parent%3D%220%22%2F%3E%3CmxCell%20id%3D%222%22%20value%3D%22G%E1%BB%A1%20c%C3%A0i%20%C4%91%E1%BA%B7t%20Mongo%204.0.28%22%20style%3D%22shape%3DumlLifeline%3Bperimeter%3DlifelinePerimeter%3BwhiteSpace%3Dwrap%3Bhtml%3D1%3Bcontainer%3D1%3BdropTarget%3D0%3Bcollapsible%3D0%3BrecursiveResize%3D0%3BoutlineConnect%3D0%3BportConstraint%3Deastwest%3BnewEdgeStyle%3D%7B%26quot%3BedgeStyle%26quot%3B%3A%26quot%3BelbowEdgeStyle%26quot%3B%2C%26quot%3Belbow%26quot%3B%3A%26quot%3Bvertical%26quot%3B%2C%26quot%3Bcurved%26quot%3B%3A0%2C%26quot%3Brounded%26quot%3B%3A0%7D%3B%22%20vertex%3D%221%22%20parent%3D%221%22%3E%3CmxGeometry%20x%3D%22-703%22%20y%3D%22115%22%20width%3D%22100%22%20height%3D%22300%22%20as%3D%22geometry%22%2F%3E%3C%2FmxCell%3E%3C%2Froot%3E%3C%2FmxGraphModel%3&lt;/span&gt;&lt;/font&gt;" style="text;html=1;align=center;verticalAlign=middle;whiteSpace=wrap;rounded=0;fontSize=16;fontFamily=Courier New;" vertex="1" parent="bPqM1AxZNPVaJdWIuvIf-13">
          <mxGeometry x="142" y="567.5" width="67" height="30" as="geometry" />
        </mxCell>
        <mxCell id="bPqM1AxZNPVaJdWIuvIf-71" value="" style="html=1;points=[[0,0,0,0,5],[0,1,0,0,-5],[1,0,0,0,5],[1,1,0,0,-5]];perimeter=orthogonalPerimeter;outlineConnect=0;targetShapes=umlLifeline;portConstraint=eastwest;newEdgeStyle={&quot;curved&quot;:0,&quot;rounded&quot;:0};fillColor=#dae8fc;strokeColor=#6c8ebf;fontFamily=Courier New;" vertex="1" parent="bPqM1AxZNPVaJdWIuvIf-13">
          <mxGeometry x="97" y="750" width="10" height="57" as="geometry" />
        </mxCell>
        <mxCell id="bPqM1AxZNPVaJdWIuvIf-72" value="" style="endArrow=classic;html=1;rounded=0;fontSize=12;startSize=8;endSize=8;curved=1;exitX=1;exitY=0;exitDx=0;exitDy=5;exitPerimeter=0;fontFamily=Courier New;" edge="1" parent="bPqM1AxZNPVaJdWIuvIf-13" source="bPqM1AxZNPVaJdWIuvIf-71" target="bPqM1AxZNPVaJdWIuvIf-71">
          <mxGeometry width="50" height="50" relative="1" as="geometry">
            <mxPoint x="221" y="845.5" as="sourcePoint" />
            <mxPoint x="271" y="795.5" as="targetPoint" />
            <Array as="points">
              <mxPoint x="142" y="806" />
            </Array>
          </mxGeometry>
        </mxCell>
        <mxCell id="bPqM1AxZNPVaJdWIuvIf-73" value="&lt;font style=&quot;font-size: 12px;&quot;&gt;rep_fb&lt;span style=&quot;color: rgba(0, 0, 0, 0); font-size: 0px; text-align: start; text-wrap: nowrap;&quot;&gt;%3CmxGraphModel%3E%3Croot%3E%3CmxCell%20id%3D%220%22%2F%3E%3CmxCell%20id%3D%221%22%20parent%3D%220%22%2F%3E%3CmxCell%20id%3D%222%22%20value%3D%22G%E1%BB%A1%20c%C3%A0i%20%C4%91%E1%BA%B7t%20Mongo%204.0.28%22%20style%3D%22shape%3DumlLifeline%3Bperimeter%3DlifelinePerimeter%3BwhiteSpace%3Dwrap%3Bhtml%3D1%3Bcontainer%3D1%3BdropTarget%3D0%3Bcollapsible%3D0%3BrecursiveResize%3D0%3BoutlineConnect%3D0%3BportConstraint%3Deastwest%3BnewEdgeStyle%3D%7B%26quot%3BedgeStyle%26quot%3B%3A%26quot%3BelbowEdgeStyle%26quot%3B%2C%26quot%3Belbow%26quot%3B%3A%26quot%3Bvertical%26quot%3B%2C%26quot%3Bcurved%26quot%3B%3A0%2C%26quot%3Brounded%26quot%3B%3A0%7D%3B%22%20vertex%3D%221%22%20parent%3D%221%22%3E%3CmxGeometry%20x%3D%22-703%22%20y%3D%22115%22%20width%3D%22100%22%20height%3D%22300%22%20as%3D%22geometry%22%2F%3E%3C%2FmxCell%3E%3C%2Froot%3E%3C%2FmxGraphModel%3&lt;/span&gt;&lt;/font&gt;" style="text;html=1;align=center;verticalAlign=middle;whiteSpace=wrap;rounded=0;fontSize=16;fontFamily=Courier New;" vertex="1" parent="bPqM1AxZNPVaJdWIuvIf-13">
          <mxGeometry x="142" y="763.5" width="67" height="30" as="geometry" />
        </mxCell>
        <mxCell id="bPqM1AxZNPVaJdWIuvIf-14" value="Chuyển đăng ký" style="shape=umlLifeline;perimeter=lifelinePerimeter;whiteSpace=wrap;html=1;container=1;dropTarget=0;collapsible=0;recursiveResize=0;outlineConnect=0;portConstraint=eastwest;newEdgeStyle={&quot;edgeStyle&quot;:&quot;elbowEdgeStyle&quot;,&quot;elbow&quot;:&quot;vertical&quot;,&quot;curved&quot;:0,&quot;rounded&quot;:0};fillColor=#d5e8d4;strokeColor=#82b366;fontFamily=Courier New;" vertex="1" parent="1">
          <mxGeometry x="390" y="121" width="100" height="300" as="geometry" />
        </mxCell>
        <mxCell id="bPqM1AxZNPVaJdWIuvIf-15" value="" style="endArrow=classic;html=1;rounded=0;fontSize=12;startSize=8;endSize=8;curved=1;fillColor=#f5f5f5;strokeColor=#666666;fontFamily=Courier New;" edge="1" parent="1" source="bPqM1AxZNPVaJdWIuvIf-35" target="bPqM1AxZNPVaJdWIuvIf-36">
          <mxGeometry width="50" height="50" relative="1" as="geometry">
            <mxPoint x="-1201" y="195.00299999999993" as="sourcePoint" />
            <mxPoint x="-584" y="193" as="targetPoint" />
          </mxGeometry>
        </mxCell>
        <mxCell id="bPqM1AxZNPVaJdWIuvIf-16" value="rep_fb9" style="edgeLabel;html=1;align=center;verticalAlign=middle;resizable=0;points=[];fontSize=12;labelBackgroundColor=#99FFFF;fontFamily=Courier New;" vertex="1" connectable="0" parent="bPqM1AxZNPVaJdWIuvIf-15">
          <mxGeometry x="-0.7706" y="-3" relative="1" as="geometry">
            <mxPoint x="3" y="-4" as="offset" />
          </mxGeometry>
        </mxCell>
        <mxCell id="bPqM1AxZNPVaJdWIuvIf-88" value="&lt;b&gt;rep_fb9&lt;/b&gt;" style="verticalAlign=top;verticalLabelPosition=bottom;labelPosition=center;align=center;html=1;outlineConnect=0;fillColor=#d5e8d4;strokeColor=#82b366;gradientDirection=north;strokeWidth=2;shape=mxgraph.networks.storage;" vertex="1" parent="1">
          <mxGeometry x="-1250" y="-340" width="40" height="60" as="geometry" />
        </mxCell>
        <mxCell id="bPqM1AxZNPVaJdWIuvIf-90" style="edgeStyle=none;curved=1;rounded=0;orthogonalLoop=1;jettySize=auto;html=1;fontSize=12;startSize=8;endSize=8;exitX=1;exitY=0.5;exitDx=0;exitDy=0;exitPerimeter=0;" edge="1" parent="1" source="bPqM1AxZNPVaJdWIuvIf-89" target="bPqM1AxZNPVaJdWIuvIf-88">
          <mxGeometry relative="1" as="geometry">
            <mxPoint x="-1460" y="-310" as="sourcePoint" />
          </mxGeometry>
        </mxCell>
        <mxCell id="bPqM1AxZNPVaJdWIuvIf-92" value="Cấp mới" style="edgeLabel;html=1;align=center;verticalAlign=middle;resizable=0;points=[];fontSize=12;" vertex="1" connectable="0" parent="bPqM1AxZNPVaJdWIuvIf-90">
          <mxGeometry x="-0.0822" y="-1" relative="1" as="geometry">
            <mxPoint as="offset" />
          </mxGeometry>
        </mxCell>
        <mxCell id="bPqM1AxZNPVaJdWIuvIf-89" value="" style="strokeWidth=2;html=1;shape=mxgraph.flowchart.start_2;whiteSpace=wrap;" vertex="1" parent="1">
          <mxGeometry x="-1450" y="-330" width="40" height="40" as="geometry" />
        </mxCell>
        <mxCell id="bPqM1AxZNPVaJdWIuvIf-91" value="&lt;b&gt;rep_fb9&lt;/b&gt;" style="verticalAlign=top;verticalLabelPosition=bottom;labelPosition=center;align=center;html=1;outlineConnect=0;gradientDirection=north;strokeWidth=2;shape=mxgraph.networks.storage;fillColor=#d5e8d4;strokeColor=#82b366;" vertex="1" parent="1">
          <mxGeometry x="-1430" y="-1050" width="40" height="40" as="geometry" />
        </mxCell>
        <mxCell id="bPqM1AxZNPVaJdWIuvIf-96" value="" style="edgeStyle=none;curved=1;rounded=0;orthogonalLoop=1;jettySize=auto;html=1;fontSize=12;startSize=8;endSize=8;entryX=0;entryY=0.5;entryDx=0;entryDy=0;" edge="1" parent="1" source="bPqM1AxZNPVaJdWIuvIf-93" target="bPqM1AxZNPVaJdWIuvIf-97">
          <mxGeometry relative="1" as="geometry">
            <mxPoint x="-1470" y="-1030" as="targetPoint" />
          </mxGeometry>
        </mxCell>
        <mxCell id="bPqM1AxZNPVaJdWIuvIf-93" value="" style="ellipse;whiteSpace=wrap;html=1;aspect=fixed;" vertex="1" parent="1">
          <mxGeometry x="-1680" y="-1050" width="60" height="60" as="geometry" />
        </mxCell>
        <mxCell id="bPqM1AxZNPVaJdWIuvIf-98" value="Cấp mới" style="text;html=1;align=center;verticalAlign=middle;whiteSpace=wrap;rounded=0;fontSize=16;" vertex="1" parent="1">
          <mxGeometry x="-1450" y="-980" width="80" height="30" as="geometry" />
        </mxCell>
        <mxCell id="bPqM1AxZNPVaJdWIuvIf-107" style="edgeStyle=none;curved=1;rounded=0;orthogonalLoop=1;jettySize=auto;html=1;entryX=0;entryY=0.5;entryDx=0;entryDy=0;fontSize=12;startSize=8;endSize=8;" edge="1" parent="1" source="bPqM1AxZNPVaJdWIuvIf-99" target="bPqM1AxZNPVaJdWIuvIf-105">
          <mxGeometry relative="1" as="geometry" />
        </mxCell>
        <mxCell id="bPqM1AxZNPVaJdWIuvIf-99" value="" style="rounded=1;whiteSpace=wrap;html=1;arcSize=18;fillColor=#f5f5f5;fontColor=#333333;strokeColor=#666666;" vertex="1" parent="1">
          <mxGeometry x="-1280" y="-1060" width="180" height="80" as="geometry" />
        </mxCell>
        <mxCell id="bPqM1AxZNPVaJdWIuvIf-100" value="&lt;b&gt;rep_fb2&lt;/b&gt;" style="verticalAlign=top;verticalLabelPosition=bottom;labelPosition=center;align=center;html=1;outlineConnect=0;gradientDirection=north;strokeWidth=2;shape=mxgraph.networks.storage;fillColor=#fff2cc;strokeColor=#d6b656;" vertex="1" parent="1">
          <mxGeometry x="-1250" y="-1050" width="40" height="40" as="geometry" />
        </mxCell>
        <mxCell id="bPqM1AxZNPVaJdWIuvIf-101" value="Chuyển dữ liệu" style="text;html=1;align=center;verticalAlign=middle;whiteSpace=wrap;rounded=0;fontSize=16;" vertex="1" parent="1">
          <mxGeometry x="-1255" y="-980" width="130" height="30" as="geometry" />
        </mxCell>
        <mxCell id="bPqM1AxZNPVaJdWIuvIf-103" value="&lt;b&gt;rep_fb9&lt;/b&gt;" style="verticalAlign=top;verticalLabelPosition=bottom;labelPosition=center;align=center;html=1;outlineConnect=0;gradientDirection=north;strokeWidth=2;shape=mxgraph.networks.storage;fillColor=#d5e8d4;strokeColor=#82b366;" vertex="1" parent="1">
          <mxGeometry x="-1160" y="-1050" width="40" height="40" as="geometry" />
        </mxCell>
        <mxCell id="bPqM1AxZNPVaJdWIuvIf-104" style="edgeStyle=none;curved=1;rounded=0;orthogonalLoop=1;jettySize=auto;html=1;entryX=0;entryY=0.5;entryDx=0;entryDy=0;entryPerimeter=0;fontSize=12;startSize=8;endSize=8;" edge="1" parent="1" source="bPqM1AxZNPVaJdWIuvIf-100" target="bPqM1AxZNPVaJdWIuvIf-103">
          <mxGeometry relative="1" as="geometry" />
        </mxCell>
        <mxCell id="bPqM1AxZNPVaJdWIuvIf-124" style="edgeStyle=none;curved=1;rounded=0;orthogonalLoop=1;jettySize=auto;html=1;entryX=0;entryY=0.5;entryDx=0;entryDy=0;fontSize=12;startSize=8;endSize=8;" edge="1" parent="1" source="bPqM1AxZNPVaJdWIuvIf-105" target="bPqM1AxZNPVaJdWIuvIf-119">
          <mxGeometry relative="1" as="geometry" />
        </mxCell>
        <mxCell id="bPqM1AxZNPVaJdWIuvIf-105" value="" style="rounded=1;whiteSpace=wrap;html=1;arcSize=18;fillColor=#f5f5f5;fontColor=#333333;strokeColor=#666666;" vertex="1" parent="1">
          <mxGeometry x="-1040" y="-1060" width="160" height="80" as="geometry" />
        </mxCell>
        <mxCell id="bPqM1AxZNPVaJdWIuvIf-106" value="&lt;b&gt;rep_fb2&lt;/b&gt;" style="verticalAlign=top;verticalLabelPosition=bottom;labelPosition=center;align=center;html=1;outlineConnect=0;gradientDirection=north;strokeWidth=2;shape=mxgraph.networks.storage;fillColor=#d5e8d4;strokeColor=#82b366;" vertex="1" parent="1">
          <mxGeometry x="-980" y="-1050" width="40" height="40" as="geometry" />
        </mxCell>
        <mxCell id="bPqM1AxZNPVaJdWIuvIf-108" value="Xoá MongoDB 4.0.28&lt;div&gt;cài MongoDB 5.0.26&lt;/div&gt;" style="text;html=1;align=center;verticalAlign=middle;whiteSpace=wrap;rounded=0;fontSize=16;" vertex="1" parent="1">
          <mxGeometry x="-1060" y="-970" width="200" height="30" as="geometry" />
        </mxCell>
        <mxCell id="bPqM1AxZNPVaJdWIuvIf-128" style="edgeStyle=none;curved=1;rounded=0;orthogonalLoop=1;jettySize=auto;html=1;entryX=0.5;entryY=0;entryDx=0;entryDy=0;fontSize=12;startSize=8;endSize=8;" edge="1" parent="1" source="bPqM1AxZNPVaJdWIuvIf-119" target="bPqM1AxZNPVaJdWIuvIf-125">
          <mxGeometry relative="1" as="geometry" />
        </mxCell>
        <mxCell id="bPqM1AxZNPVaJdWIuvIf-119" value="" style="rounded=1;whiteSpace=wrap;html=1;arcSize=18;fillColor=#f5f5f5;fontColor=#333333;strokeColor=#666666;" vertex="1" parent="1">
          <mxGeometry x="-810" y="-1060" width="180" height="80" as="geometry" />
        </mxCell>
        <mxCell id="bPqM1AxZNPVaJdWIuvIf-120" value="&lt;b&gt;rep_fb&lt;/b&gt;" style="verticalAlign=top;verticalLabelPosition=bottom;labelPosition=center;align=center;html=1;outlineConnect=0;gradientDirection=north;strokeWidth=2;shape=mxgraph.networks.storage;fillColor=#fff2cc;strokeColor=#d6b656;" vertex="1" parent="1">
          <mxGeometry x="-780" y="-1050" width="40" height="40" as="geometry" />
        </mxCell>
        <mxCell id="bPqM1AxZNPVaJdWIuvIf-121" value="Chuyển dữ liệu" style="text;html=1;align=center;verticalAlign=middle;whiteSpace=wrap;rounded=0;fontSize=16;" vertex="1" parent="1">
          <mxGeometry x="-785" y="-980" width="130" height="30" as="geometry" />
        </mxCell>
        <mxCell id="bPqM1AxZNPVaJdWIuvIf-122" value="&lt;b&gt;rep_fb2&lt;/b&gt;" style="verticalAlign=top;verticalLabelPosition=bottom;labelPosition=center;align=center;html=1;outlineConnect=0;gradientDirection=north;strokeWidth=2;shape=mxgraph.networks.storage;fillColor=#d5e8d4;strokeColor=#82b366;" vertex="1" parent="1">
          <mxGeometry x="-690" y="-1050" width="40" height="40" as="geometry" />
        </mxCell>
        <mxCell id="bPqM1AxZNPVaJdWIuvIf-123" style="edgeStyle=none;curved=1;rounded=0;orthogonalLoop=1;jettySize=auto;html=1;entryX=0;entryY=0.5;entryDx=0;entryDy=0;entryPerimeter=0;fontSize=12;startSize=8;endSize=8;" edge="1" parent="1" source="bPqM1AxZNPVaJdWIuvIf-120" target="bPqM1AxZNPVaJdWIuvIf-122">
          <mxGeometry relative="1" as="geometry" />
        </mxCell>
        <mxCell id="bPqM1AxZNPVaJdWIuvIf-144" style="edgeStyle=none;curved=1;rounded=0;orthogonalLoop=1;jettySize=auto;html=1;fontSize=12;startSize=8;endSize=8;" edge="1" parent="1" source="bPqM1AxZNPVaJdWIuvIf-125" target="bPqM1AxZNPVaJdWIuvIf-139">
          <mxGeometry relative="1" as="geometry" />
        </mxCell>
        <mxCell id="bPqM1AxZNPVaJdWIuvIf-125" value="" style="rounded=1;whiteSpace=wrap;html=1;arcSize=18;fillColor=#f5f5f5;fontColor=#333333;strokeColor=#666666;" vertex="1" parent="1">
          <mxGeometry x="-800" y="-830" width="160" height="80" as="geometry" />
        </mxCell>
        <mxCell id="bPqM1AxZNPVaJdWIuvIf-126" value="&lt;b&gt;rep_fb&lt;/b&gt;" style="verticalAlign=top;verticalLabelPosition=bottom;labelPosition=center;align=center;html=1;outlineConnect=0;gradientDirection=north;strokeWidth=2;shape=mxgraph.networks.storage;fillColor=#d5e8d4;strokeColor=#82b366;" vertex="1" parent="1">
          <mxGeometry x="-740" y="-830" width="40" height="40" as="geometry" />
        </mxCell>
        <mxCell id="bPqM1AxZNPVaJdWIuvIf-127" value="Xoá MongoDB 4.0.28&lt;div&gt;cài MongoDB 5.0.26&lt;/div&gt;" style="text;html=1;align=center;verticalAlign=middle;whiteSpace=wrap;rounded=0;fontSize=16;" vertex="1" parent="1">
          <mxGeometry x="-820" y="-743" width="200" height="30" as="geometry" />
        </mxCell>
        <mxCell id="bPqM1AxZNPVaJdWIuvIf-148" style="edgeStyle=none;curved=1;rounded=0;orthogonalLoop=1;jettySize=auto;html=1;entryX=1;entryY=0.5;entryDx=0;entryDy=0;fontSize=12;startSize=8;endSize=8;" edge="1" parent="1" source="bPqM1AxZNPVaJdWIuvIf-139" target="bPqM1AxZNPVaJdWIuvIf-145">
          <mxGeometry relative="1" as="geometry" />
        </mxCell>
        <mxCell id="bPqM1AxZNPVaJdWIuvIf-139" value="" style="rounded=1;whiteSpace=wrap;html=1;arcSize=18;fillColor=#f5f5f5;fontColor=#333333;strokeColor=#666666;" vertex="1" parent="1">
          <mxGeometry x="-1050" y="-830" width="180" height="80" as="geometry" />
        </mxCell>
        <mxCell id="bPqM1AxZNPVaJdWIuvIf-140" value="&lt;b&gt;rep10&lt;/b&gt;" style="verticalAlign=top;verticalLabelPosition=bottom;labelPosition=center;align=center;html=1;outlineConnect=0;gradientDirection=north;strokeWidth=2;shape=mxgraph.networks.storage;fillColor=#fff2cc;strokeColor=#d6b656;" vertex="1" parent="1">
          <mxGeometry x="-1020" y="-820" width="40" height="40" as="geometry" />
        </mxCell>
        <mxCell id="bPqM1AxZNPVaJdWIuvIf-141" value="Chuyển dữ liệu" style="text;html=1;align=center;verticalAlign=middle;whiteSpace=wrap;rounded=0;fontSize=16;" vertex="1" parent="1">
          <mxGeometry x="-1025" y="-750" width="130" height="30" as="geometry" />
        </mxCell>
        <mxCell id="bPqM1AxZNPVaJdWIuvIf-142" value="&lt;b&gt;rep_fb&lt;/b&gt;" style="verticalAlign=top;verticalLabelPosition=bottom;labelPosition=center;align=center;html=1;outlineConnect=0;gradientDirection=north;strokeWidth=2;shape=mxgraph.networks.storage;fillColor=#d5e8d4;strokeColor=#82b366;" vertex="1" parent="1">
          <mxGeometry x="-930" y="-820" width="40" height="40" as="geometry" />
        </mxCell>
        <mxCell id="bPqM1AxZNPVaJdWIuvIf-143" style="edgeStyle=none;curved=1;rounded=0;orthogonalLoop=1;jettySize=auto;html=1;entryX=0;entryY=0.5;entryDx=0;entryDy=0;entryPerimeter=0;fontSize=12;startSize=8;endSize=8;" edge="1" parent="1" source="bPqM1AxZNPVaJdWIuvIf-140" target="bPqM1AxZNPVaJdWIuvIf-142">
          <mxGeometry relative="1" as="geometry" />
        </mxCell>
        <mxCell id="bPqM1AxZNPVaJdWIuvIf-159" style="edgeStyle=none;curved=1;rounded=0;orthogonalLoop=1;jettySize=auto;html=1;entryX=1;entryY=0.5;entryDx=0;entryDy=0;fontSize=12;startSize=8;endSize=8;" edge="1" parent="1" source="bPqM1AxZNPVaJdWIuvIf-145" target="bPqM1AxZNPVaJdWIuvIf-154">
          <mxGeometry relative="1" as="geometry" />
        </mxCell>
        <mxCell id="bPqM1AxZNPVaJdWIuvIf-145" value="" style="rounded=1;whiteSpace=wrap;html=1;arcSize=18;fillColor=#f5f5f5;fontColor=#333333;strokeColor=#666666;" vertex="1" parent="1">
          <mxGeometry x="-1270" y="-830" width="160" height="80" as="geometry" />
        </mxCell>
        <mxCell id="bPqM1AxZNPVaJdWIuvIf-146" value="&lt;b&gt;rep10&lt;/b&gt;" style="verticalAlign=top;verticalLabelPosition=bottom;labelPosition=center;align=center;html=1;outlineConnect=0;gradientDirection=north;strokeWidth=2;shape=mxgraph.networks.storage;fillColor=#d5e8d4;strokeColor=#82b366;" vertex="1" parent="1">
          <mxGeometry x="-1210" y="-820" width="40" height="40" as="geometry" />
        </mxCell>
        <mxCell id="bPqM1AxZNPVaJdWIuvIf-147" value="Xoá MongoDB 4.0.28&lt;div&gt;cài MongoDB 5.0.26&lt;/div&gt;" style="text;html=1;align=center;verticalAlign=middle;whiteSpace=wrap;rounded=0;fontSize=16;" vertex="1" parent="1">
          <mxGeometry x="-1290" y="-740" width="200" height="30" as="geometry" />
        </mxCell>
        <mxCell id="bPqM1AxZNPVaJdWIuvIf-152" value="Chuyển đăng ký&#xa;Group 4" style="shape=image;verticalLabelPosition=bottom;labelBackgroundColor=default;verticalAlign=top;aspect=fixed;imageAspect=0;image=https://png.pngtree.com/png-vector/20230412/ourmid/pngtree-completed-task-line-icon-vector-png-image_6703007.png;" vertex="1" parent="1">
          <mxGeometry x="-828" y="-690" width="50" height="50" as="geometry" />
        </mxCell>
        <mxCell id="bPqM1AxZNPVaJdWIuvIf-153" style="edgeStyle=none;curved=1;rounded=0;orthogonalLoop=1;jettySize=auto;html=1;entryX=0.955;entryY=0.967;entryDx=0;entryDy=0;entryPerimeter=0;fontSize=12;startSize=8;endSize=8;" edge="1" parent="1" source="bPqM1AxZNPVaJdWIuvIf-152" target="bPqM1AxZNPVaJdWIuvIf-139">
          <mxGeometry relative="1" as="geometry" />
        </mxCell>
        <mxCell id="bPqM1AxZNPVaJdWIuvIf-163" style="edgeStyle=none;curved=1;rounded=0;orthogonalLoop=1;jettySize=auto;html=1;entryX=1;entryY=0.5;entryDx=0;entryDy=0;fontSize=12;startSize=8;endSize=8;" edge="1" parent="1" source="bPqM1AxZNPVaJdWIuvIf-154" target="bPqM1AxZNPVaJdWIuvIf-160">
          <mxGeometry relative="1" as="geometry" />
        </mxCell>
        <mxCell id="bPqM1AxZNPVaJdWIuvIf-154" value="" style="rounded=1;whiteSpace=wrap;html=1;arcSize=18;fillColor=#f5f5f5;fontColor=#333333;strokeColor=#666666;" vertex="1" parent="1">
          <mxGeometry x="-1500" y="-830" width="180" height="80" as="geometry" />
        </mxCell>
        <mxCell id="bPqM1AxZNPVaJdWIuvIf-155" value="&lt;b&gt;rep_fb21&lt;/b&gt;" style="verticalAlign=top;verticalLabelPosition=bottom;labelPosition=center;align=center;html=1;outlineConnect=0;gradientDirection=north;strokeWidth=2;shape=mxgraph.networks.storage;fillColor=#fff2cc;strokeColor=#d6b656;" vertex="1" parent="1">
          <mxGeometry x="-1470" y="-820" width="40" height="40" as="geometry" />
        </mxCell>
        <mxCell id="bPqM1AxZNPVaJdWIuvIf-156" value="Chuyển dữ liệu" style="text;html=1;align=center;verticalAlign=middle;whiteSpace=wrap;rounded=0;fontSize=16;" vertex="1" parent="1">
          <mxGeometry x="-1475" y="-750" width="130" height="30" as="geometry" />
        </mxCell>
        <mxCell id="bPqM1AxZNPVaJdWIuvIf-157" value="&lt;b&gt;rep_10&lt;/b&gt;" style="verticalAlign=top;verticalLabelPosition=bottom;labelPosition=center;align=center;html=1;outlineConnect=0;gradientDirection=north;strokeWidth=2;shape=mxgraph.networks.storage;fillColor=#d5e8d4;strokeColor=#82b366;" vertex="1" parent="1">
          <mxGeometry x="-1380" y="-820" width="40" height="40" as="geometry" />
        </mxCell>
        <mxCell id="bPqM1AxZNPVaJdWIuvIf-158" style="edgeStyle=none;curved=1;rounded=0;orthogonalLoop=1;jettySize=auto;html=1;entryX=0;entryY=0.5;entryDx=0;entryDy=0;entryPerimeter=0;fontSize=12;startSize=8;endSize=8;" edge="1" parent="1" source="bPqM1AxZNPVaJdWIuvIf-155" target="bPqM1AxZNPVaJdWIuvIf-157">
          <mxGeometry relative="1" as="geometry" />
        </mxCell>
        <mxCell id="bPqM1AxZNPVaJdWIuvIf-166" style="edgeStyle=none;curved=1;rounded=0;orthogonalLoop=1;jettySize=auto;html=1;fontSize=12;startSize=8;endSize=8;" edge="1" parent="1" source="bPqM1AxZNPVaJdWIuvIf-160" target="bPqM1AxZNPVaJdWIuvIf-165">
          <mxGeometry relative="1" as="geometry" />
        </mxCell>
        <mxCell id="bPqM1AxZNPVaJdWIuvIf-160" value="" style="rounded=1;whiteSpace=wrap;html=1;arcSize=18;fillColor=#f5f5f5;fontColor=#333333;strokeColor=#666666;" vertex="1" parent="1">
          <mxGeometry x="-1730" y="-830" width="160" height="80" as="geometry" />
        </mxCell>
        <mxCell id="bPqM1AxZNPVaJdWIuvIf-161" value="&lt;b&gt;rep_fb21&lt;/b&gt;" style="verticalAlign=top;verticalLabelPosition=bottom;labelPosition=center;align=center;html=1;outlineConnect=0;gradientDirection=north;strokeWidth=2;shape=mxgraph.networks.storage;fillColor=#d5e8d4;strokeColor=#82b366;" vertex="1" parent="1">
          <mxGeometry x="-1670" y="-820" width="40" height="40" as="geometry" />
        </mxCell>
        <mxCell id="bPqM1AxZNPVaJdWIuvIf-162" value="Xoá MongoDB 4.0.28&lt;div&gt;cài MongoDB5.0.26&lt;/div&gt;" style="text;html=1;align=center;verticalAlign=middle;whiteSpace=wrap;rounded=0;fontSize=16;" vertex="1" parent="1">
          <mxGeometry x="-1750" y="-740" width="200" height="30" as="geometry" />
        </mxCell>
        <mxCell id="bPqM1AxZNPVaJdWIuvIf-165" value="" style="ellipse;whiteSpace=wrap;html=1;aspect=fixed;fillColor=#f5f5f5;fontColor=#333333;strokeColor=#666666;" vertex="1" parent="1">
          <mxGeometry x="-1680" y="-950" width="60" height="60" as="geometry" />
        </mxCell>
        <mxCell id="bPqM1AxZNPVaJdWIuvIf-168" value="Tạo DB kvfb9&#xa;Chờ chuyển đăng ký &#xa;khi group4 quá 4000" style="shape=image;verticalLabelPosition=bottom;labelBackgroundColor=default;verticalAlign=top;aspect=fixed;imageAspect=0;image=https://png.pngtree.com/png-vector/20230412/ourmid/pngtree-completed-task-line-icon-vector-png-image_6703007.png;" vertex="1" parent="1">
          <mxGeometry x="-1560" y="-690" width="50" height="50" as="geometry" />
        </mxCell>
        <mxCell id="bPqM1AxZNPVaJdWIuvIf-169" style="edgeStyle=none;curved=1;rounded=0;orthogonalLoop=1;jettySize=auto;html=1;entryX=0.951;entryY=0.925;entryDx=0;entryDy=0;entryPerimeter=0;fontSize=12;startSize=8;endSize=8;" edge="1" parent="1" source="bPqM1AxZNPVaJdWIuvIf-168" target="bPqM1AxZNPVaJdWIuvIf-160">
          <mxGeometry relative="1" as="geometry" />
        </mxCell>
        <mxCell id="bPqM1AxZNPVaJdWIuvIf-170" value="" style="verticalAlign=top;verticalLabelPosition=bottom;labelPosition=center;align=center;html=1;outlineConnect=0;gradientDirection=north;strokeWidth=2;shape=mxgraph.networks.storage;fillColor=#d5e8d4;strokeColor=#82b366;" vertex="1" parent="1">
          <mxGeometry x="-1705" y="-537" width="25" height="24" as="geometry" />
        </mxCell>
        <mxCell id="bPqM1AxZNPVaJdWIuvIf-171" value="" style="verticalAlign=top;verticalLabelPosition=bottom;labelPosition=center;align=center;html=1;outlineConnect=0;gradientDirection=north;strokeWidth=2;shape=mxgraph.networks.storage;fillColor=#fff2cc;strokeColor=#d6b656;" vertex="1" parent="1">
          <mxGeometry x="-1705" y="-576" width="25" height="27" as="geometry" />
        </mxCell>
        <mxCell id="bPqM1AxZNPVaJdWIuvIf-174" value="4.0.28" style="text;html=1;align=center;verticalAlign=middle;whiteSpace=wrap;rounded=0;fontSize=16;" vertex="1" parent="1">
          <mxGeometry x="-1680" y="-577.5" width="60" height="30" as="geometry" />
        </mxCell>
        <mxCell id="bPqM1AxZNPVaJdWIuvIf-175" value="5.0.26" style="text;html=1;align=center;verticalAlign=middle;whiteSpace=wrap;rounded=0;fontSize=16;" vertex="1" parent="1">
          <mxGeometry x="-1680" y="-540" width="60" height="30" as="geometry" />
        </mxCell>
      </root>
    </mxGraphModel>
  </diagram>
</mxfile>
